# xmcd
#
# Track frame offsets:
#	150
#	16598
#	35242
#	67367
#	83729
#	105283
#	147703
#	171354
#	191504
#	205137
#	219379
#	244490
#	259602
#	273338
#	285382
#
# Disc length: 4015 seconds
#
# Revision: 1
# Processed by: cddbd v1.5.2PL0 Copyright (c) Steve Scherf et al.
# Submitted via: EZCDAudioConverter 7.1.7.1
#
DISCID=e10fad0f
DTITLE=金耳朵 DSD - 发烧民乐
DYEAR=2006
DGENRE=
TTITLE0=鼓诗 - 《中华第一鼓》
TTITLE1=醉笛 - 笛子
TTITLE2=十面埋伏 - 琵琶
TTITLE3=《黄河》钢琴协奏曲第一乐章 - 钢琴
TTITLE4=月光下的凤尾竹 - 葫芦丝
TTITLE5=沉鱼·西施浣纱 - 琵琶对竖琴
TTITLE6=闲云孤鹤 - 《一意孤行》
TTITLE7=一杯美酒 - 手鼓对排箫
TTITLE8=梁祝 - 小提琴
TTITLE9=苏武牧羊 - 小调
TTITLE10=阳关三迭 - 古筝
TTITLE11=功夫 - 《龙谣3》
TTITLE12=平湖秋月 - 二胡
TTITLE13=喜洋洋 - 《喜洋洋》
TTITLE14=高山流水 - 古筝
EXTD=
EXTT0=
EXTT1=
EXTT2=
EXTT3=
EXTT4=
EXTT5=
EXTT6=
EXTT7=
EXTT8=
EXTT9=
EXTT10=
EXTT11=
EXTT12=
EXTT13=
EXTT14=
PLAYORDER=
